<svg width="30" height="30" viewBox="0 0 30 30" fill="none" xmlns="http://www.w3.org/2000/svg">
<path d="M15.068 2.87402C8.45887 2.87402 3.07324 8.25965 3.07324 14.8687C3.07324 21.4778 8.45887 26.8635 15.068 26.8635C21.6771 26.8635 27.0627 21.4778 27.0627 14.8687C27.0627 8.25965 21.6771 2.87402 15.068 2.87402ZM19.8659 15.7684H15.9676V19.6666C15.9676 20.1584 15.5597 20.5662 15.068 20.5662C14.5762 20.5662 14.1684 20.1584 14.1684 19.6666V15.7684H10.2701C9.77829 15.7684 9.37047 15.3605 9.37047 14.8687C9.37047 14.377 9.77829 13.9691 10.2701 13.9691H14.1684V10.0709C14.1684 9.57907 14.5762 9.17125 15.068 9.17125C15.5597 9.17125 15.9676 9.57907 15.9676 10.0709V13.9691H19.8659C20.3576 13.9691 20.7655 14.377 20.7655 14.8687C20.7655 15.3605 20.3576 15.7684 19.8659 15.7684Z" fill="white"/>
</svg>
