<svg width="40" height="40" viewBox="0 0 40 40" fill="none" xmlns="http://www.w3.org/2000/svg">
<path d="M19.9997 3.33301C10.8163 3.33301 3.33301 10.8163 3.33301 19.9997C3.33301 29.183 10.8163 36.6663 19.9997 36.6663C29.183 36.6663 36.6663 29.183 36.6663 19.9997C36.6663 10.8163 29.183 3.33301 19.9997 3.33301ZM25.5997 23.833C26.083 24.3163 26.083 25.1163 25.5997 25.5997C25.3497 25.8497 25.033 25.9663 24.7163 25.9663C24.3997 25.9663 24.083 25.8497 23.833 25.5997L19.9997 21.7663L16.1663 25.5997C15.9163 25.8497 15.5997 25.9663 15.283 25.9663C14.9663 25.9663 14.6497 25.8497 14.3997 25.5997C13.9163 25.1163 13.9163 24.3163 14.3997 23.833L18.233 19.9997L14.3997 16.1663C13.9163 15.683 13.9163 14.883 14.3997 14.3997C14.883 13.9163 15.683 13.9163 16.1663 14.3997L19.9997 18.233L23.833 14.3997C24.3163 13.9163 25.1163 13.9163 25.5997 14.3997C26.083 14.883 26.083 15.683 25.5997 16.1663L21.7663 19.9997L25.5997 23.833Z" fill="#060508"/>
</svg>
